<svg width="69" height="41" viewBox="0 0 69 41" fill="none" xmlns="http://www.w3.org/2000/svg">
<path d="M7.9 40H4.325C4.00833 40 3.74167 39.9083 3.525 39.725C3.325 39.525 3.20833 39.3 3.175 39.05L0.875 23.125V23.05C0.875 22.9 0.925 22.775 1.025 22.675C1.14167 22.5583 1.275 22.5 1.425 22.5H6.075C6.625 22.5 6.925 22.725 6.975 23.175L7.825 30.225L8.85 27.1C9.01667 26.6167 9.3 26.375 9.7 26.375H12.25C12.65 26.375 12.9333 26.6167 13.1 27.1L14.125 30.2L14.975 23.175C15.025 22.725 15.325 22.5 15.875 22.5H20.525C20.675 22.5 20.8 22.5583 20.9 22.675C21.0167 22.775 21.075 22.9 21.075 23.05V23.125L18.775 39.05C18.7417 39.3 18.6167 39.525 18.4 39.725C18.2 39.9083 17.9417 40 17.625 40H14.05C13.5333 40 13.1917 39.775 13.025 39.325L10.975 34.2L8.925 39.325C8.75833 39.775 8.41667 40 7.9 40ZM22.8232 34.35V32.65C22.8232 30.75 23.4982 29.2917 24.8482 28.275C26.1982 27.2583 27.9399 26.75 30.0732 26.75C32.2066 26.75 33.9482 27.2583 35.2982 28.275C36.6482 29.2917 37.3232 30.75 37.3232 32.65V34.35C37.3232 36.2667 36.6732 37.7333 35.3732 38.75C34.0732 39.75 32.3066 40.25 30.0732 40.25C27.8399 40.25 26.0732 39.75 24.7732 38.75C23.4732 37.7333 22.8232 36.2667 22.8232 34.35ZM31.1982 34.55V32.45C31.1982 31.8167 31.1149 31.375 30.9482 31.125C30.7816 30.875 30.4899 30.75 30.0732 30.75C29.6566 30.75 29.3649 30.875 29.1982 31.125C29.0316 31.375 28.9482 31.8167 28.9482 32.45V34.55C28.9482 35.2167 29.0316 35.6667 29.1982 35.9C29.3649 36.1333 29.6566 36.25 30.0732 36.25C30.4899 36.25 30.7816 36.125 30.9482 35.875C31.1149 35.625 31.1982 35.1833 31.1982 34.55ZM44.933 27.675V28.55C46.0997 27.5167 47.3997 27 48.833 27H50.033C50.2163 27 50.3747 27.0667 50.508 27.2C50.6413 27.3333 50.708 27.4917 50.708 27.675V31.575C50.708 31.7583 50.6413 31.9167 50.508 32.05C50.3747 32.1833 50.2163 32.25 50.033 32.25H46.808C46.358 32.25 45.9997 32.3583 45.733 32.575C45.483 32.775 45.3413 33.05 45.308 33.4V39.325C45.308 39.5083 45.2413 39.6667 45.108 39.8C44.9747 39.9333 44.8163 40 44.633 40H39.883C39.6997 40 39.5413 39.9333 39.408 39.8C39.2747 39.6667 39.208 39.5083 39.208 39.325V27.675C39.208 27.4917 39.2747 27.3333 39.408 27.2C39.5413 27.0667 39.6997 27 39.883 27H44.258C44.4413 27 44.5997 27.0667 44.733 27.2C44.8663 27.3333 44.933 27.4917 44.933 27.675ZM52.3398 34.475V32.5C52.3398 30.6333 52.8398 29.2083 53.8398 28.225C54.8398 27.2417 56.0565 26.75 57.4898 26.75C58.9398 26.75 60.0982 27.1417 60.9648 27.925V22.925C60.9648 22.7417 61.0315 22.5833 61.1648 22.45C61.2982 22.3167 61.4565 22.25 61.6398 22.25H66.2648C66.4482 22.25 66.6065 22.3167 66.7398 22.45C66.8732 22.5833 66.9398 22.7417 66.9398 22.925V39.325C66.9398 39.5083 66.8732 39.6667 66.7398 39.8C66.6065 39.9333 66.4482 40 66.2648 40H62.0148C61.8315 40 61.6732 39.9333 61.5398 39.8C61.4065 39.6667 61.3398 39.5083 61.3398 39.325V38.575C60.4732 39.6917 59.2482 40.25 57.6648 40.25C56.0815 40.25 54.7982 39.7833 53.8148 38.85C52.8315 37.9 52.3398 36.4417 52.3398 34.475ZM60.9648 34.325V32.475C60.9148 31.6417 60.4982 31.225 59.7148 31.225C58.8815 31.225 58.4648 31.7083 58.4648 32.675V34.325C58.4648 35.2917 58.8815 35.775 59.7148 35.775C60.5482 35.775 60.9648 35.2917 60.9648 34.325Z" fill="black"/>
<path d="M8.384 0.799999H14.026C14.65 0.799999 15.04 1.086 15.196 1.658L20.994 18.246C21.0113 18.298 21.02 18.3847 21.02 18.506C21.02 18.61 20.9593 18.7227 20.838 18.844C20.734 18.948 20.604 19 20.448 19H15.638C15.118 19 14.78 18.7833 14.624 18.35L14 16.634H8.41L7.786 18.35C7.63 18.7833 7.292 19 6.772 19H1.962C1.806 19 1.66733 18.948 1.546 18.844C1.442 18.7227 1.39 18.61 1.39 18.506C1.39 18.3847 1.39867 18.298 1.416 18.246L7.214 1.658C7.37 1.086 7.76 0.799999 8.384 0.799999ZM9.736 11.564H12.674L11.192 6.728L9.736 11.564ZM27.7061 0.799999H35.1941C37.7247 0.799999 39.8047 1.43267 41.4341 2.698C43.0807 3.946 43.9041 5.69667 43.9041 7.95V11.824C43.9041 14.1813 43.1067 15.9667 41.5121 17.18C39.9174 18.3933 37.8201 19 35.2201 19H27.7061C27.5154 19 27.3507 18.9307 27.2121 18.792C27.0734 18.6533 27.0041 18.4887 27.0041 18.298V1.502C27.0041 1.31133 27.0734 1.14667 27.2121 1.008C27.3507 0.869332 27.5154 0.799999 27.7061 0.799999ZM33.5041 5.87V13.93H35.1941C35.7834 13.93 36.2514 13.7567 36.5981 13.41C36.9621 13.046 37.1441 12.5173 37.1441 11.824V7.95C37.1441 6.56333 36.4941 5.87 35.1941 5.87H33.5041ZM51.36 0.799999H58.848C61.3786 0.799999 63.4586 1.43267 65.088 2.698C66.7346 3.946 67.558 5.69667 67.558 7.95V11.824C67.558 14.1813 66.7606 15.9667 65.166 17.18C63.5713 18.3933 61.474 19 58.874 19H51.36C51.1693 19 51.0046 18.9307 50.866 18.792C50.7273 18.6533 50.658 18.4887 50.658 18.298V1.502C50.658 1.31133 50.7273 1.14667 50.866 1.008C51.0046 0.869332 51.1693 0.799999 51.36 0.799999ZM57.158 5.87V13.93H58.848C59.4373 13.93 59.9053 13.7567 60.252 13.41C60.616 13.046 60.798 12.5173 60.798 11.824V7.95C60.798 6.56333 60.148 5.87 58.848 5.87H57.158Z" fill="black"/>
</svg>
